<svg xmlns="http://www.w3.org/2000/svg" xmlns:xlink="http://www.w3.org/1999/xlink" width="500" zoomAndPan="magnify" viewBox="0 0 375 374.999991" height="500" preserveAspectRatio="xMidYMid meet" version="1.0"><path fill="#004aad" d="M 375 187.5 C 375 190.570312 374.925781 193.636719 374.773438 196.699219 C 374.625 199.765625 374.398438 202.824219 374.097656 205.878906 C 373.796875 208.933594 373.421875 211.976562 372.972656 215.011719 C 372.519531 218.046875 371.996094 221.070312 371.398438 224.078125 C 370.800781 227.089844 370.125 230.082031 369.382812 233.058594 C 368.636719 236.035156 367.816406 238.992188 366.925781 241.929688 C 366.035156 244.863281 365.074219 247.777344 364.039062 250.667969 C 363.007812 253.554688 361.902344 256.417969 360.726562 259.253906 C 359.554688 262.089844 358.308594 264.894531 357 267.667969 C 355.6875 270.441406 354.308594 273.179688 352.859375 275.886719 C 351.414062 278.59375 349.902344 281.261719 348.324219 283.894531 C 346.746094 286.527344 345.105469 289.117188 343.402344 291.667969 C 341.695312 294.222656 339.929688 296.730469 338.101562 299.195312 C 336.273438 301.660156 334.386719 304.078125 332.441406 306.449219 C 330.492188 308.820312 328.488281 311.144531 326.429688 313.417969 C 324.367188 315.691406 322.253906 317.914062 320.082031 320.082031 C 317.914062 322.253906 315.691406 324.367188 313.417969 326.429688 C 311.144531 328.488281 308.820312 330.492188 306.449219 332.441406 C 304.078125 334.386719 301.660156 336.273438 299.195312 338.101562 C 296.730469 339.929688 294.222656 341.695312 291.667969 343.402344 C 289.117188 345.105469 286.527344 346.746094 283.894531 348.324219 C 281.261719 349.902344 278.59375 351.414062 275.886719 352.859375 C 273.179688 354.308594 270.441406 355.6875 267.667969 357 C 264.894531 358.308594 262.089844 359.554688 259.253906 360.726562 C 256.417969 361.902344 253.554688 363.007812 250.667969 364.039062 C 247.777344 365.074219 244.863281 366.035156 241.929688 366.925781 C 238.992188 367.816406 236.035156 368.636719 233.058594 369.382812 C 230.082031 370.125 227.089844 370.800781 224.078125 371.398438 C 221.070312 371.996094 218.046875 372.519531 215.011719 372.972656 C 211.976562 373.421875 208.933594 373.796875 205.878906 374.097656 C 202.824219 374.398438 199.765625 374.625 196.699219 374.773438 C 193.636719 374.925781 190.570312 375 187.5 375 C 184.429688 375 181.363281 374.925781 178.300781 374.773438 C 175.234375 374.625 172.175781 374.398438 169.121094 374.097656 C 166.066406 373.796875 163.023438 373.421875 159.988281 372.972656 C 156.953125 372.519531 153.929688 371.996094 150.921875 371.398438 C 147.910156 370.800781 144.917969 370.125 141.941406 369.382812 C 138.964844 368.636719 136.007812 367.816406 133.070312 366.925781 C 130.136719 366.035156 127.222656 365.074219 124.332031 364.039062 C 121.445312 363.007812 118.582031 361.902344 115.746094 360.726562 C 112.910156 359.554688 110.105469 358.308594 107.332031 357 C 104.558594 355.6875 101.820312 354.308594 99.113281 352.859375 C 96.40625 351.414062 93.738281 349.902344 91.105469 348.324219 C 88.472656 346.746094 85.882812 345.105469 83.332031 343.402344 C 80.777344 341.695312 78.269531 339.929688 75.804688 338.101562 C 73.339844 336.273438 70.921875 334.386719 68.550781 332.441406 C 66.179688 330.492188 63.855469 328.488281 61.582031 326.429688 C 59.308594 324.367188 57.085938 322.253906 54.917969 320.082031 C 52.746094 317.914062 50.632812 315.691406 48.570312 313.417969 C 46.511719 311.144531 44.507812 308.820312 42.558594 306.449219 C 40.613281 304.078125 38.726562 301.660156 36.898438 299.195312 C 35.070312 296.730469 33.304688 294.222656 31.597656 291.667969 C 29.894531 289.117188 28.253906 286.527344 26.675781 283.894531 C 25.097656 281.261719 23.585938 278.59375 22.140625 275.886719 C 20.691406 273.179688 19.3125 270.441406 18 267.667969 C 16.691406 264.894531 15.445312 262.089844 14.273438 259.253906 C 13.097656 256.417969 11.992188 253.554688 10.960938 250.667969 C 9.925781 247.777344 8.964844 244.863281 8.074219 241.929688 C 7.183594 238.992188 6.363281 236.035156 5.617188 233.058594 C 4.875 230.082031 4.199219 227.089844 3.601562 224.078125 C 3.003906 221.070312 2.480469 218.046875 2.027344 215.011719 C 1.578125 211.976562 1.203125 208.933594 0.902344 205.878906 C 0.601562 202.824219 0.375 199.765625 0.226562 196.699219 C 0.0742188 193.636719 0 190.570312 0 187.5 C 0 184.429688 0.0742188 181.363281 0.226562 178.300781 C 0.375 175.234375 0.601562 172.175781 0.902344 169.121094 C 1.203125 166.066406 1.578125 163.023438 2.027344 159.988281 C 2.480469 156.953125 3.003906 153.929688 3.601562 150.921875 C 4.199219 147.910156 4.875 144.917969 5.617188 141.941406 C 6.363281 138.964844 7.183594 136.007812 8.074219 133.070312 C 8.964844 130.136719 9.925781 127.222656 10.960938 124.332031 C 11.992188 121.445312 13.097656 118.582031 14.273438 115.746094 C 15.445312 112.910156 16.691406 110.105469 18 107.332031 C 19.3125 104.558594 20.691406 101.820312 22.140625 99.113281 C 23.585938 96.40625 25.097656 93.738281 26.675781 91.105469 C 28.253906 88.472656 29.894531 85.882812 31.597656 83.332031 C 33.304688 80.777344 35.070312 78.269531 36.898438 75.804688 C 38.726562 73.339844 40.613281 70.921875 42.558594 68.550781 C 44.507812 66.179688 46.511719 63.855469 48.570312 61.582031 C 50.632812 59.308594 52.746094 57.085938 54.917969 54.917969 C 57.085938 52.746094 59.308594 50.632812 61.582031 48.570312 C 63.855469 46.511719 66.179688 44.507812 68.550781 42.558594 C 70.921875 40.613281 73.339844 38.726562 75.804688 36.898438 C 78.269531 35.070312 80.777344 33.304688 83.332031 31.597656 C 85.882812 29.894531 88.472656 28.253906 91.105469 26.675781 C 93.738281 25.097656 96.40625 23.585938 99.113281 22.140625 C 101.820312 20.691406 104.558594 19.3125 107.332031 18 C 110.105469 16.691406 112.910156 15.445312 115.746094 14.273438 C 118.582031 13.097656 121.445312 11.992188 124.332031 10.960938 C 127.222656 9.925781 130.136719 8.964844 133.070312 8.074219 C 136.007812 7.183594 138.964844 6.363281 141.941406 5.617188 C 144.917969 4.875 147.910156 4.199219 150.921875 3.601562 C 153.929688 3.003906 156.953125 2.480469 159.988281 2.027344 C 163.023438 1.578125 166.066406 1.203125 169.121094 0.902344 C 172.175781 0.601562 175.234375 0.375 178.300781 0.226562 C 181.363281 0.0742188 184.429688 0 187.5 0 C 190.570312 0 193.636719 0.0742188 196.699219 0.226562 C 199.765625 0.375 202.824219 0.601562 205.878906 0.902344 C 208.933594 1.203125 211.976562 1.578125 215.011719 2.027344 C 218.046875 2.480469 221.070312 3.003906 224.078125 3.601562 C 227.089844 4.199219 230.082031 4.875 233.058594 5.617188 C 236.035156 6.363281 238.992188 7.183594 241.929688 8.074219 C 244.863281 8.964844 247.777344 9.925781 250.667969 10.960938 C 253.554688 11.992188 256.417969 13.097656 259.253906 14.273438 C 262.089844 15.445312 264.894531 16.691406 267.667969 18 C 270.441406 19.3125 273.179688 20.691406 275.886719 22.140625 C 278.59375 23.585938 281.261719 25.097656 283.894531 26.675781 C 286.527344 28.253906 289.117188 29.894531 291.667969 31.597656 C 294.222656 33.304688 296.730469 35.070312 299.195312 36.898438 C 301.660156 38.726562 304.078125 40.613281 306.449219 42.558594 C 308.820312 44.507812 311.144531 46.511719 313.417969 48.570312 C 315.691406 50.632812 317.914062 52.746094 320.082031 54.917969 C 322.253906 57.085938 324.367188 59.308594 326.429688 61.582031 C 328.488281 63.855469 330.492188 66.179688 332.441406 68.550781 C 334.386719 70.921875 336.273438 73.339844 338.101562 75.804688 C 339.929688 78.269531 341.695312 80.777344 343.402344 83.332031 C 345.105469 85.882812 346.746094 88.472656 348.324219 91.105469 C 349.902344 93.738281 351.414062 96.40625 352.859375 99.113281 C 354.308594 101.820312 355.6875 104.558594 357 107.332031 C 358.308594 110.105469 359.554688 112.910156 360.726562 115.746094 C 361.902344 118.582031 363.007812 121.445312 364.039062 124.332031 C 365.074219 127.222656 366.035156 130.136719 366.925781 133.070312 C 367.816406 136.007812 368.636719 138.964844 369.382812 141.941406 C 370.125 144.917969 370.800781 147.910156 371.398438 150.921875 C 371.996094 153.929688 372.519531 156.953125 372.972656 159.988281 C 373.421875 163.023438 373.796875 166.066406 374.097656 169.121094 C 374.398438 172.175781 374.625 175.234375 374.773438 178.300781 C 374.925781 181.363281 375 184.429688 375 187.5 Z M 375 187.5 " fill-opacity="1" fill-rule="nonzero"/><path fill="#fed762" d="M 156.359375 113.628906 L 218.640625 113.628906 C 219.546875 113.628906 220.3125 112.863281 220.3125 111.957031 L 220.3125 96.132812 C 220.3125 95.230469 219.550781 94.460938 218.640625 94.460938 L 202.472656 94.460938 C 200.980469 94.460938 199.769531 93.25 199.769531 91.757812 C 199.769531 84.992188 194.265625 79.488281 187.5 79.488281 C 180.734375 79.488281 175.230469 84.992188 175.230469 91.757812 C 175.230469 93.25 174.019531 94.460938 172.527344 94.460938 L 156.359375 94.460938 C 155.453125 94.460938 154.6875 95.230469 154.6875 96.132812 L 154.6875 111.957031 C 154.6875 112.863281 155.453125 113.628906 156.359375 113.628906 Z M 187.5 100.910156 C 182.828125 100.910156 179.027344 97.109375 179.027344 92.4375 C 179.027344 87.765625 182.828125 83.964844 187.5 83.964844 C 192.171875 83.964844 195.972656 87.765625 195.972656 92.4375 C 195.972656 97.109375 192.171875 100.910156 187.5 100.910156 Z M 187.5 100.910156 " fill-opacity="1" fill-rule="evenodd"/><path fill="#293253" d="M 248.277344 300.4375 L 126.722656 300.4375 C 118.355469 300.4375 111.550781 293.632812 111.550781 285.265625 L 111.550781 114.621094 C 111.550781 106.257812 118.355469 99.453125 126.722656 99.453125 L 152.746094 99.453125 C 154.207031 99.453125 155.394531 100.636719 155.394531 102.097656 C 155.394531 103.5625 154.207031 104.746094 152.746094 104.746094 L 126.722656 104.746094 C 121.277344 104.746094 116.847656 109.175781 116.847656 114.625 L 116.847656 285.269531 C 116.847656 290.714844 121.277344 295.144531 126.722656 295.144531 L 248.277344 295.144531 C 253.722656 295.144531 258.148438 290.714844 258.148438 285.269531 L 258.148438 114.625 C 258.148438 109.179688 253.722656 104.746094 248.277344 104.746094 L 222.253906 104.746094 C 220.792969 104.746094 219.609375 103.5625 219.609375 102.097656 C 219.609375 100.636719 220.796875 99.453125 222.253906 99.453125 L 248.277344 99.453125 C 256.640625 99.453125 263.445312 106.257812 263.445312 114.621094 L 263.445312 285.265625 C 263.445312 293.632812 256.640625 300.4375 248.277344 300.4375 Z M 248.277344 300.4375 " fill-opacity="1" fill-rule="evenodd"/><path fill="#293253" d="M 217.972656 118.554688 L 157.027344 118.554688 C 153.207031 118.554688 150.097656 115.449219 150.097656 111.625 L 150.097656 96.144531 C 150.097656 92.324219 153.207031 89.214844 157.027344 89.214844 L 170.402344 89.214844 C 171.679688 80.925781 178.859375 74.5625 187.5 74.5625 C 196.136719 74.5625 203.316406 80.925781 204.59375 89.214844 L 217.972656 89.214844 C 221.792969 89.214844 224.902344 92.324219 224.902344 96.144531 L 224.902344 111.625 C 224.902344 115.445312 221.792969 118.554688 217.972656 118.554688 Z M 157.027344 94.507812 C 156.144531 94.507812 155.394531 95.257812 155.394531 96.144531 L 155.394531 111.625 C 155.394531 112.511719 156.144531 113.261719 157.027344 113.261719 L 217.972656 113.261719 C 218.859375 113.261719 219.609375 112.511719 219.609375 111.625 L 219.609375 96.144531 C 219.609375 95.257812 218.859375 94.507812 217.972656 94.507812 L 202.152344 94.507812 C 200.691406 94.507812 199.503906 93.320312 199.503906 91.859375 C 199.503906 85.242188 194.117188 79.855469 187.5 79.855469 C 180.882812 79.855469 175.496094 85.242188 175.496094 91.859375 C 175.496094 93.320312 174.308594 94.507812 172.847656 94.507812 Z M 157.027344 94.507812 " fill-opacity="1" fill-rule="evenodd"/><path fill="#293253" d="M 187.5 102.039062 C 182.25 102.039062 177.984375 97.769531 177.984375 92.523438 C 177.984375 87.277344 182.25 83.011719 187.5 83.011719 C 192.746094 83.011719 197.015625 87.277344 197.015625 92.523438 C 197.015625 97.769531 192.746094 102.039062 187.5 102.039062 Z M 187.5 89.082031 C 185.601562 89.082031 184.058594 90.625 184.058594 92.523438 C 184.058594 94.417969 185.601562 95.960938 187.5 95.960938 C 189.394531 95.960938 190.9375 94.417969 190.9375 92.523438 C 190.9375 90.625 189.394531 89.082031 187.5 89.082031 Z M 187.5 89.082031 " fill-opacity="1" fill-rule="evenodd"/><path fill="#293253" d="M 221.734375 300.4375 C 221.121094 300.4375 220.507812 300.226562 220.007812 299.796875 C 218.898438 298.84375 218.773438 297.171875 219.722656 296.066406 C 219.878906 295.882812 235.230469 277.710938 230.53125 260.09375 C 230.273438 259.132812 230.578125 258.113281 231.316406 257.445312 C 232.050781 256.785156 233.105469 256.585938 234.03125 256.941406 C 234.230469 257.011719 253.589844 264.238281 258.40625 253.96875 C 259.023438 252.640625 260.601562 252.074219 261.921875 252.691406 C 263.25 253.3125 263.816406 254.886719 263.195312 256.210938 C 258.042969 267.214844 243.78125 265.144531 236.503906 263.242188 C 238.6875 281.882812 224.394531 298.753906 223.738281 299.519531 C 223.214844 300.125 222.476562 300.4375 221.734375 300.4375 Z M 221.734375 300.4375 " fill-opacity="1" fill-rule="evenodd"/><path fill="#293253" d="M 226.691406 240.375 L 148.308594 240.375 C 146.847656 240.375 145.664062 239.1875 145.664062 237.726562 L 145.664062 162.164062 C 145.664062 160.703125 146.847656 159.519531 148.308594 159.519531 L 226.691406 159.515625 C 228.152344 159.515625 229.335938 160.703125 229.335938 162.164062 L 229.335938 237.726562 C 229.339844 239.1875 228.152344 240.375 226.691406 240.375 Z M 150.957031 235.078125 L 224.042969 235.078125 L 224.042969 164.808594 L 150.957031 164.808594 Z M 150.957031 235.078125 " fill-opacity="1" fill-rule="evenodd"/><path fill="#293253" d="M 180.855469 221.46875 C 180.152344 221.46875 179.480469 221.191406 178.984375 220.691406 L 162.792969 204.503906 C 162.296875 204.007812 162.019531 203.332031 162.019531 202.632812 C 162.019531 201.929688 162.296875 201.257812 162.792969 200.757812 L 171.070312 192.480469 C 172.101562 191.449219 173.777344 191.449219 174.8125 192.480469 L 180.855469 198.523438 L 200.1875 179.1875 C 200.6875 178.691406 201.359375 178.414062 202.0625 178.414062 C 202.765625 178.414062 203.4375 178.691406 203.933594 179.1875 L 212.210938 187.464844 C 213.246094 188.496094 213.242188 190.175781 212.210938 191.207031 L 182.726562 220.691406 C 182.230469 221.191406 181.554688 221.46875 180.855469 221.46875 Z M 168.410156 202.632812 L 180.855469 215.078125 L 206.59375 189.339844 L 202.058594 184.808594 L 182.722656 204.144531 C 181.691406 205.179688 180.015625 205.179688 178.980469 204.144531 L 172.9375 198.101562 Z M 168.410156 202.632812 " fill-opacity="1" fill-rule="evenodd"/><path fill="#293253" d="M 131.804688 270.414062 C 130.34375 270.414062 129.15625 269.226562 129.15625 267.769531 L 129.15625 202.421875 C 129.15625 200.960938 130.34375 199.773438 131.804688 199.773438 C 133.265625 199.773438 134.449219 200.960938 134.449219 202.421875 L 134.449219 267.769531 C 134.449219 269.230469 133.265625 270.414062 131.804688 270.414062 Z M 131.804688 270.414062 " fill-opacity="1" fill-rule="evenodd"/><path fill="#293253" d="M 243.199219 202.105469 C 241.738281 202.105469 240.550781 200.917969 240.550781 199.457031 L 240.550781 137.074219 C 240.550781 135.613281 241.738281 134.425781 243.199219 134.425781 C 244.65625 134.425781 245.84375 135.613281 245.84375 137.074219 L 245.84375 199.457031 C 245.84375 200.917969 244.660156 202.105469 243.199219 202.105469 Z M 243.199219 202.105469 " fill-opacity="1" fill-rule="evenodd"/><path fill="#fed762" d="M 180.855469 215.082031 L 206.59375 189.34375 L 202.0625 184.808594 L 182.722656 204.144531 C 181.691406 205.179688 180.015625 205.179688 178.980469 204.144531 L 172.9375 198.101562 L 168.410156 202.632812 Z M 180.855469 215.082031 " fill-opacity="1" fill-rule="evenodd"/><path fill="#fed762" d="M 212.210938 191.207031 L 182.726562 220.691406 C 182.230469 221.191406 181.554688 221.46875 180.855469 221.46875 C 180.152344 221.46875 179.480469 221.191406 178.984375 220.695312 L 162.792969 204.503906 C 162.296875 204.007812 162.019531 203.332031 162.019531 202.632812 C 162.019531 201.929688 162.296875 201.257812 162.792969 200.757812 L 171.070312 192.484375 C 172.101562 191.449219 173.777344 191.449219 174.8125 192.484375 L 180.855469 198.523438 L 200.1875 179.1875 C 200.6875 178.691406 201.359375 178.414062 202.0625 178.414062 C 202.765625 178.414062 203.4375 178.691406 203.933594 179.1875 L 212.210938 187.464844 C 213.246094 188.496094 213.242188 190.175781 212.210938 191.210938 Z M 150.957031 235.078125 L 224.042969 235.078125 L 224.042969 164.808594 L 150.957031 164.808594 Z M 150.957031 235.078125 " fill-opacity="1" fill-rule="evenodd"/><path fill="#fed762" d="M 258.152344 262.046875 C 251.613281 266.230469 242.039062 264.6875 236.503906 263.242188 C 238.054688 276.480469 231.296875 288.824219 227.011719 295.144531 L 248.277344 295.144531 C 253.722656 295.144531 258.152344 290.714844 258.152344 285.269531 Z M 258.152344 262.046875 " fill-opacity="1" fill-rule="evenodd"/><path fill="#fed762" d="M 220.460938 295.144531 C 223.492188 291.226562 234.625 275.449219 230.53125 260.09375 C 230.273438 259.132812 230.578125 258.113281 231.316406 257.445312 C 232.050781 256.785156 233.105469 256.585938 234.03125 256.941406 C 234.226562 257.011719 252.949219 264 258.152344 254.46875 L 258.152344 114.625 C 258.152344 109.179688 253.722656 104.746094 248.277344 104.746094 L 224.902344 104.746094 L 224.902344 111.625 C 224.902344 115.445312 221.792969 118.558594 217.972656 118.558594 L 157.03125 118.558594 C 153.207031 118.558594 150.097656 115.449219 150.097656 111.625 L 150.097656 104.746094 L 126.722656 104.746094 C 121.277344 104.746094 116.847656 109.175781 116.847656 114.625 L 116.847656 285.269531 C 116.847656 290.714844 121.277344 295.144531 126.722656 295.144531 Z M 226.691406 240.375 L 148.308594 240.375 C 146.847656 240.375 145.664062 239.1875 145.664062 237.726562 L 145.664062 162.164062 C 145.664062 160.703125 146.847656 159.519531 148.308594 159.519531 L 226.691406 159.515625 C 228.152344 159.515625 229.335938 160.703125 229.335938 162.164062 L 229.335938 237.726562 C 229.339844 239.1875 228.152344 240.375 226.691406 240.375 Z M 243.199219 202.105469 C 241.738281 202.105469 240.550781 200.917969 240.550781 199.457031 L 240.550781 137.074219 C 240.550781 135.613281 241.738281 134.425781 243.199219 134.425781 C 244.65625 134.425781 245.84375 135.613281 245.84375 137.074219 L 245.84375 199.457031 C 245.84375 200.917969 244.660156 202.105469 243.199219 202.105469 Z M 134.449219 267.769531 C 134.449219 269.230469 133.265625 270.414062 131.804688 270.414062 C 130.34375 270.414062 129.15625 269.226562 129.15625 267.769531 L 129.15625 202.421875 C 129.15625 200.960938 130.34375 199.773438 131.804688 199.773438 C 133.265625 199.773438 134.449219 200.960938 134.449219 202.421875 Z M 134.449219 267.769531 " fill-opacity="1" fill-rule="evenodd"/><path fill="#fed762" d="M 183.511719 92.523438 C 183.511719 94.722656 185.300781 96.507812 187.5 96.507812 C 189.699219 96.507812 191.484375 94.722656 191.484375 92.523438 C 191.484375 90.324219 189.699219 88.539062 187.5 88.539062 C 185.300781 88.539062 183.511719 90.324219 183.511719 92.523438 Z M 183.511719 92.523438 " fill-opacity="1" fill-rule="evenodd"/></svg>